PathFileType	4	(X/Y/Z)	Run_200 02
DataRate	CameraRate	NumFrames	NumMarkers	Units	OrigDataRate	OrigDataStartFrame	OrigNumFrames
100	100	6	42	mm	100	161	128
Frame#	Time	RASI			LPSI			RPSI			RTH1			RTH2			RTH3			LTH1			LTH2			LTH3			RTB1			RTB2			RTB3			LTB1			LTB2			LTB3			RCAL			RTOE			RMT5			LCAL			LTOE			LMT5			LACR			RACR			C7			RUA1			RUA2			RUA3			RLEL			RMEL			LUA2			LUA3			LLEL			LMEL			RFAsuperior			RFAradius			RFAulna			LFAsuperior			LFAradius			LFAulna			LUA1			CLAV			LASI			
		X1	Y1	Z1	X2	Y2	Z2	X3	Y3	Z3	X4	Y4	Z4	X5	Y5	Z5	X6	Y6	Z6	X7	Y7	Z7	X8	Y8	Z8	X9	Y9	Z9	X10	Y10	Z10	X11	Y11	Z11	X12	Y12	Z12	X13	Y13	Z13	X14	Y14	Z14	X15	Y15	Z15	X16	Y16	Z16	X17	Y17	Z17	X18	Y18	Z18	X19	Y19	Z19	X20	Y20	Z20	X21	Y21	Z21	X22	Y22	Z22	X23	Y23	Z23	X24	Y24	Z24	X25	Y25	Z25	X26	Y26	Z26	X27	Y27	Z27	X28	Y28	Z28	X29	Y29	Z29	X30	Y30	Z30	X31	Y31	Z31	X32	Y32	Z32	X33	Y33	Z33	X34	Y34	Z34	X35	Y35	Z35	X36	Y36	Z36	X37	Y37	Z37	X38	Y38	Z38	X39	Y39	Z39	X40	Y40	Z40	X41	Y41	Z41	X42	Y42	Z42	

149	2.31	1201.353317	1054.298264	-180.185547	1055.556536	1090.566009	-369.520172	1040.494121	1092.095958	-277.571455	1191.482082	886.164134	-120.124517	1265.213778	804.51273	-130.499197	1245.408116	661.7140470000001	-153.201847	1140.230823	884.04767	-490.129455	1166.421654	746.352477	-458.03706	1057.516817	651.551574	-456.145357	1297.310443	402.292806	-213.891167	1222.841719	313.828476	-178.636879	1238.026399	236.967082	-238.791165	976.904124	373.980714	-377.584966	920.492679	334.655639	-421.75235	895.699459	260.665084	-363.826692	1101.38093	152.768844	-256.075194	1334.81976	117.836628	-238.226893	1305.866062	95.099232	-165.19621	732.855069	208.743144	-350.516214	921.041642	69.482264	-314.327602	894.677791	62.793748	-403.028893	1225.134658	1581.387317	-466.460603	1157.964086	1556.040725	-135.37532	1127.371374	1590.020112	-316.203601	1052.750289	1460.108277	-75.426361	990.830586	1475.249547	-105.39791	973.663558	1406.438729	-78.511043	912.540927	1346.800541	-75.873071	901.644557	1356.999847	-170.332066	1117.175785	1414.156364	-563.924615	1164.824104	1344.46848	-584.88346	1154.708728	1274.989876	-598.654881	1092.99887	1263.357033	-527.0259160000001	995.879578	1320.305747	-74.82656299999999	1155.72753	1281.388177	-124.950686	1121.764733	1219.192303	-116.564486	1229.918697	1277.03212	-552.27116	1331.112719	1331.003354	-416.526402	1348.968702	1261.20295	-419.936385	1195.86725	1466.112442	-554.769181	1236.452098	1505.993732	-263.373427	1218.679174	1054.645902	-438.366727	
150	2.32	1203.099225	1058.275336	-180.771659	1057.419192	1094.959892	-369.410973	1042.411367	1097.008372	-277.368172	1191.736194	889.515276	-119.614366	1263.101598	806.4833149999999	-131.223924	1239.983342	663.455163	-155.311428	1140.675752	887.9599030000001	-489.851382	1163.913988	749.787312	-456.553597	1053.355901	657.052607	-455.694891	1302.968277	404.311802	-215.574449	1236.076718	310.484276	-179.16956	1255.369846	235.148894	-240.063437	967.900634	380.745411	-377.786105	911.006879	342.348459	-422.242001	885.928094	267.913961	-364.322926	1124.97361	141.040038	-254.916405	1360.699428	123.577312	-242.400986	1335.094028	98.24185900000001	-168.941557	724.53633	220.810647	-350.455859	904.505642	71.05055	-315.122471	877.522906	65.26703999999999	-403.463541	1224.886984	1588.443954	-463.708189	1158.116697	1561.3043	-134.284122	1126.344453	1594.745966	-314.522166	1053.291285	1466.278068	-73.413353	991.610901	1481.691923	-103.407562	973.9328389999999	1413.140882	-75.96082800000001	912.371816	1353.283622	-73.396795	900.932695	1364.218614	-167.872364	1119.893823	1422.236787	-564.0694999999999	1168.139365	1353.156752	-585.653567	1158.355145	1283.185607	-599.82079	1095.396355	1270.587082	-529.595916	996.0699959999999	1327.555154	-73.273106	1155.638464	1290.340741	-125.067716	1122.702321	1227.70434	-116.278091	1232.590348	1285.284755	-551.889379	1330.473016	1339.408265	-413.33916	1348.952732	1269.65952	-416.800842	1198.368921	1474.043651	-554.6119660000001	1235.917583	1510.988207	-262.229681	1219.785526	1057.935525	-438.9144	
151	2.33	1204.808337	1061.363646	-181.184838	1059.158219	1098.588517	-369.659094	1044.133041	1100.987615	-277.16214	1191.875136	891.477288	-119.214416	1260.716457	806.868801	-132.170417	1234.16952	664.075903	-156.449367	1141.46086	891.3236450000001	-489.829198	1162.146772	752.852098	-455.129729	1050.369889	661.854383	-455.236273	1307.622389	405.968157	-217.681107	1248.516896	307.523649	-179.847798	1271.368752	233.874232	-241.427064	960.209704	386.708003	-377.993786	902.744652	349.441896	-422.76822	877.058452	274.727119	-364.814677	1147.741186	130.65136	-253.879712	1384.282986	129.945364	-246.725947	1362.2799	102.522104	-172.90326	716.885148	232.777716	-350.643173	888.743472	72.936739	-315.863794	860.846996	68.109556	-403.650201	1224.477678	1594.191924	-460.891161	1158.554988	1565.715874	-133.066651	1125.530887	1598.501635	-312.817796	1054.233344	1471.148022	-71.280935	992.682953	1486.705862	-101.26617	974.624331	1418.607998	-73.260338	912.856547	1358.450798	-70.552544	900.91562	1369.735079	-165.104777	1122.252581	1429.332698	-564.122308	1170.774906	1360.737683	-586.279445	1161.131349	1290.221561	-600.86271	1097.422348	1276.963973	-531.9567479999999	996.959514	1333.444502	-71.54968599999999	1156.099605	1297.734091	-125.374602	1124.236171	1234.673288	-115.498949	1234.545164	1292.051028	-551.623284	1329.802321	1346.067273	-410.729499	1348.45656	1276.316512	-414.4218	1200.733642	1480.802815	-554.860143	1235.49012	1514.795593	-261.378848	1220.853687	1060.339103	-439.291037	
152	2.34	1206.522126	1063.593654	-181.284893	1060.641808	1101.335325	-370.063481	1045.642876	1103.863152	-277.018256	1192.021909	892.234813	-118.982263	1258.563205	805.96224	-133.299421	1228.622506	663.869963	-156.619397	1142.4737	894.023827	-489.843985	1161.2058	755.3825419999999	-453.731516	1048.63505	665.698771	-454.791752	1311.177764	407.173031	-219.77338	1259.667614	304.929024	-180.601767	1285.70443	233.107386	-242.923028	953.868681	391.603588	-378.077226	895.7786589999999	355.666475	-423.174795	868.969216	280.947801	-365.242465	1169.067891	121.768032	-253.075824	1405.152063	136.726379	-250.955921	1386.772853	107.581269	-176.915515	709.607253	244.380993	-351.243365	873.671508	74.99144699999999	-316.462906	844.877427	71.311475	-403.82513	1223.925276	1598.536077	-458.159993	1159.246044	1569.129334	-131.731364	1124.960458	1601.249348	-311.07648	1055.495722	1474.738706	-69.06422000000001	993.956913	1490.267796	-98.97875000000001	975.73877	1422.689471	-70.359075	913.938495	1362.14305	-67.432446	901.526978	1373.46299	-162.110516	1123.964026	1435.262156	-563.932813	1172.601664	1367.012019	-586.719482	1162.985569	1295.958103	-601.763077	1098.849785	1282.355965	-533.945507	998.488476	1337.8937	-69.61176399999999	1157.10699	1303.515356	-125.525383	1126.354012	1240.023768	-114.218982	1235.749158	1297.241916	-551.4942	1329.106455	1350.782896	-408.748034	1347.444594	1280.98518	-412.610042	1202.553025	1486.332452	-555.024393	1235.282726	1517.502927	-260.547627	1221.9268	1061.883418	-439.354017	
153	2.35	1208.265862	1065.014173	-181.037449	1061.756735	1103.167152	-370.229606	1046.953157	1105.544005	-276.873158	1192.418416	892.094925	-118.983435	1256.907767	804.22262	-134.436387	1223.822665	662.92319	-156.181502	1143.595622	895.956202	-489.76903	1161.131679	757.188396	-452.326197	1048.239473	668.262873	-454.42414	1313.719164	407.856512	-221.366294	1269.11712	302.722239	-181.276073	1298.143714	232.747551	-244.35312	948.840559	395.215336	-377.990119	890.058985	360.798658	-423.353829	861.466303	286.45371	-365.575876	1188.256928	114.579151	-252.486877	1422.982332	143.563374	-254.879647	1407.994303	112.736039	-180.876934	702.429218	255.399815	-352.358693	859.009564	77.156493	-316.971184	829.7056689999999	74.800254	-404.162407	1223.265167	1601.538554	-455.838258	1160.167448	1571.392278	-130.291759	1124.655611	1602.984529	-309.253752	1057.012599	1477.094815	-66.77860200000001	995.397026	1492.354777	-96.58779800000001	977.254049	1425.280277	-67.2282	915.561283	1364.199043	-64.14602600000001	902.61856	1375.372073	-158.906056	1124.828708	1439.845783	-563.368777	1173.537593	1371.840392	-586.994269	1163.870946	1300.316784	-602.50988	1099.398836	1286.580406	-535.47203	1000.588579	1340.811345	-67.398484	1158.652357	1307.628224	-125.301044	1129.02923	1243.69801	-112.500531	1236.146862	1300.793773	-551.50242	1328.396023	1353.397923	-407.365092	1345.964241	1283.506343	-411.377481	1203.503454	1490.542196	-554.731746	1235.366328	1519.217325	-259.564584	1223.029891	1062.61646	-439.06866	
154	2.36	1210.001535	1065.699642	-180.533995	1062.48183	1104.076094	-370.006143	1048.055584	1106.061223	-276.594792	1193.285818	891.338519	-119.193733	1255.74693	802.00183	-135.294092	1219.934633	661.2094039999999	-155.463285	1144.707046	897.012374	-489.534285	1161.912018	758.094197	-450.920432	1049.244732	669.2556959999999	-454.124492	1315.496901	407.995631	-222.25007	1276.646036	300.879569	-181.770583	1308.502966	232.58008	-245.42083	945.0052930000001	397.449559	-377.785868	885.43163	364.753509	-423.316801	854.421709	291.20086	-365.857462	1204.589886	109.060436	-252.072861	1437.509331	149.75173	-258.37635	1425.499193	117.068602	-184.733483	695.2593450000001	265.754459	-353.944967	844.424797	79.59121500000001	-317.538807	815.187803	78.50528	-404.624703	1222.571115	1603.222372	-454.033772	1161.316607	1572.412254	-128.749369	1124.61441	1603.743052	-307.323634	1058.748439	1478.19357	-64.439007	997.002061	1492.923463	-94.109717	979.113594	1426.306381	-63.910524	917.671228	1364.513631	-60.776158	904.106307	1375.479518	-155.500925	1124.775277	1442.935285	-562.377328	1173.536181	1375.162967	-587.189856	1163.744846	1303.258136	-603.082524	1098.936325	1289.483152	-536.527376	1003.156638	1342.090935	-64.927076	1160.713936	1310.024888	-124.641786	1132.224219	1245.675436	-110.451117	1235.675709	1302.665736	-551.607937	1327.655576	1353.847584	-406.470918	1344.08628	1283.817587	-410.839313	1203.482276	1493.296926	-553.908066	1235.734474	1519.998606	-258.426806	1224.125101	1062.614338	-438.52658	
